<?xml version="1.0" encoding="UTF-8"?>
<svg width="197px" height="175px" viewBox="0 0 197 175" version="1.1" xmlns="http://www.w3.org/2000/svg" xmlns:xlink="http://www.w3.org/1999/xlink">
    <!-- Generator: Sketch 50 (54983) - http://www.bohemiancoding.com/sketch -->
    <title>Group</title>
    <desc>Created with Sketch.</desc>
    <defs></defs>
    <g id="Page-1" stroke="none" stroke-width="1" fill="none" fill-rule="evenodd">
        <g id="Home" transform="translate(-627.000000, -263.000000)" fill="#7BCDD2">
            <g id="Hero">
                <g id="Group-5" transform="translate(483.000000, 263.000000)">
                    <g id="Group" transform="translate(144.000000, 0.000000)">
                        <path d="M178.130701,14.917988 L172.438658,27.8049249 L179.342565,37.3442643 C181.735906,36.267988 184.635892,36.9443393 186.281576,39.1352553 C188.192895,41.6793243 187.686249,45.295991 185.149874,47.2131081 C182.614023,49.1302252 179.008294,48.620991 177.096975,46.0769219 C175.46177,43.9007207 175.601661,40.9430631 177.262015,38.9324024 L169.42131,28.0992192 L169.4386,28.0866066 L169.431265,28.0829279 L176.066392,13.0613063 C174.319065,11.5682883 172.494719,10.1861562 170.601738,8.9290991 L157.264943,37.442012 L157.257608,37.4388589 L157.25918,37.4604054 L151.155323,37.905 C150.918504,39.3065766 150.173467,40.6245946 148.952172,41.5468919 C146.415797,43.4645345 142.810068,42.9558258 140.898749,40.4112312 C138.98743,37.8671622 139.494076,34.2504955 142.030451,32.3339039 C144.566302,30.4167868 148.172031,30.92497 150.08335,33.4695646 C150.501975,34.0266216 150.797475,34.6362312 150.988188,35.2668619 L155.523903,34.9368318 L168.348813,7.51701201 C165.359757,5.73127628 162.227142,4.24036036 158.996028,3.06896396 L150.187613,21.9016967 L150.179754,21.898018 L150.18185,21.9195646 L138.829201,22.7462162 C138.615435,24.1914114 137.859395,25.5567267 136.604044,26.5053003 C134.067669,28.4224174 130.462464,27.9137087 128.551145,25.3696396 C126.639826,22.8255706 127.145948,19.2089039 129.682323,17.2917868 C132.218698,15.3746697 135.823903,15.8833784 137.735222,18.4274474 C138.129222,18.9513964 138.414243,19.5221171 138.606004,20.1122823 L148.446049,19.395991 L156.476419,2.22707207 C136.675823,-3.83854354 113.778765,2.02159159 98.2713019,25.5698649 C65.4639907,-24.056036 -0.0563231383,5.10274775 0.000261968085,59.2161111 C0.0343178191,92.2511712 26.7241503,116.705976 50.0408816,135.598619 L56.4585758,125.629925 L51.9076662,116.670766 C49.3791503,117.28458 46.6688285,116.113709 45.4360066,113.686306 C43.9941343,110.847943 45.1190253,107.374745 47.9488045,105.928498 C50.7780598,104.482252 54.2412779,105.611081 55.6831503,108.44997 C56.924879,110.894715 56.2589561,113.807177 54.2428497,115.493063 L59.4837832,125.810706 L59.4649215,125.820165 L59.4717327,125.824895 L52.106238,137.26506 C53.9070066,138.713408 55.6831503,140.129174 57.4184269,141.512357 C58.3887566,142.285931 59.3239827,143.02955 60.2424428,143.758453 L73.2093391,123.617688 L71.0585811,119.383529 C68.5305891,119.99524 65.822887,118.824895 64.5905891,116.399069 C63.1487168,113.56018 64.2736077,110.086982 67.102863,108.640736 C69.9326423,107.194489 73.3953364,108.323318 74.8377327,111.161682 C76.0799854,113.608003 75.4130146,116.522568 73.3948125,118.207928 L76.2345465,123.798468 L76.2151609,123.808453 L76.2219721,123.812658 L62.3208976,145.404925 C64.2180705,146.904249 65.9984056,148.304249 67.6770971,149.618063 L74.6800279,139.240511 L74.6868391,139.24524 L74.6884109,139.223694 L88.0744561,140.352523 C88.5989162,139.238934 89.4765093,138.283003 90.6553657,137.680225 C93.484621,136.233979 96.9473152,137.363333 98.3897114,140.201697 C99.8315838,143.04006 98.7066928,146.513784 95.8769136,147.959505 C93.0471343,149.405751 89.5844402,148.276922 88.1425678,145.438559 C87.7380891,144.642387 87.5426609,143.796291 87.5227513,142.959129 L76.0103019,141.987958 L69.762363,151.247718 C85.694738,163.67009 91.7079535,167.81964 98.4269109,174.560556 C106.597172,166.287207 113.434539,161.432402 139.366235,141.417763 C164.315028,122.120465 196.647653,95.1867568 196.612025,58.597042 L196.612025,58.5891592 C196.59264,40.5636336 189.188374,25.3333784 178.130701,14.917988" id="Fill-1"></path>
                        <path d="M73.0608032,111.99548 C72.0993803,110.103063 69.8082074,109.341577 67.9435186,110.29488 C66.0783059,111.248183 65.3458431,113.554715 66.307266,115.447132 C67.2681649,117.33955 69.5593378,118.101036 71.4245505,117.147733 C73.2897633,116.194429 74.0222261,113.887898 73.0608032,111.99548" id="Fill-3"></path>
                        <path d="M94.9765816,146.187485 C96.8417944,145.234182 97.5742572,142.92765 96.6128343,141.035233 C95.6514114,139.142815 93.3607625,138.381329 91.4955497,139.334107 C89.630337,140.28741 88.8978742,142.594467 89.8592971,144.486884 C90.8207199,146.379302 93.1113689,147.140263 94.9765816,146.187485" id="Fill-5"></path>
                        <path d="M130.796369,18.7745045 C129.124488,20.0378679 128.802268,22.4374174 130.07648,24.1332883 C131.351217,25.8296847 133.739318,26.1802102 135.411198,24.9168468 C137.082555,23.6534835 137.404252,21.2539339 136.130563,19.5580631 C134.855826,17.8616667 132.467725,17.5111411 130.796369,18.7745045" id="Fill-7"></path>
                        <path d="M183.956976,45.6242868 C185.628332,44.3609234 185.950553,41.9613739 184.67634,40.265503 C183.401603,38.5691066 181.014026,38.2185811 179.342146,39.4819444 C177.67079,40.7453078 177.348569,43.1448574 178.622782,44.8407282 C179.896994,46.5371246 182.285619,46.8876502 183.956976,45.6242868" id="Fill-9"></path>
                        <path d="M143.144182,33.8163589 C141.472826,35.0797222 141.150081,37.4792718 142.424818,39.1751426 C143.69903,40.871539 146.087131,41.2220646 147.759012,39.9587012 C149.430368,38.6953378 149.752065,36.2957883 148.478376,34.5999174 C147.203639,32.903521 144.815538,32.5529955 143.144182,33.8163589" id="Fill-11"></path>
                        <path d="M53.9064303,109.283191 C52.9450074,107.390773 50.6538346,106.629287 48.7891457,107.58259 C46.923933,108.535893 46.1914702,110.842425 47.1528931,112.734842 C48.114316,114.62726 50.4049649,115.388746 52.2701777,114.435443 C54.1353904,113.48214 54.8673293,111.175608 53.9064303,109.283191" id="Fill-13"></path>
                    </g>
                </g>
            </g>
        </g>
    </g>
</svg>