<?xml version="1.0" standalone="no"?>
<!DOCTYPE svg PUBLIC "-//W3C//DTD SVG 20010904//EN"
 "http://www.w3.org/TR/2001/REC-SVG-20010904/DTD/svg10.dtd">
<svg version="1.0" xmlns="http://www.w3.org/2000/svg"
 width="760.000000pt" height="760.000000pt" viewBox="0 0 760.000000 760.000000"
 preserveAspectRatio="xMidYMid meet">
<metadata>
Created by potrace 1.11, written by Peter Selinger 2001-2013
</metadata>
<g transform="translate(0.000000,760.000000) scale(0.100000,-0.100000)"
fill="#000000" stroke="none">
<path d="M3657 7354 c-1 -1 -42 -4 -92 -8 -119 -9 -165 -14 -255 -26 -75 -11
-125 -20 -255 -45 -72 -14 -302 -77 -401 -110 -688 -231 -1301 -664 -1745
-1235 -324 -416 -554 -895 -679 -1415 -16 -66 -31 -131 -34 -145 -2 -14 -9
-52 -14 -85 -15 -85 -23 -134 -27 -180 -3 -22 -7 -60 -10 -85 -16 -138 -23
-505 -11 -610 3 -25 8 -81 11 -125 3 -44 8 -87 10 -95 2 -8 7 -35 10 -60 17
-128 52 -302 87 -425 10 -38 21 -77 23 -85 29 -121 146 -422 229 -590 220
-442 487 -797 847 -1126 125 -114 367 -297 501 -379 9 -5 48 -29 85 -51 78
-48 287 -158 319 -168 18 -6 24 1 42 41 22 51 79 174 142 308 21 44 93 199
160 345 244 532 289 610 426 743 348 336 873 419 1309 206 97 -48 103 -52 185
-113 76 -57 174 -156 230 -231 53 -72 95 -150 183 -340 41 -88 88 -189 105
-225 62 -133 106 -228 157 -340 29 -63 72 -155 95 -205 23 -49 53 -114 66
-142 12 -29 26 -53 29 -53 10 0 223 108 265 135 22 14 42 25 45 25 12 0 243
153 345 228 69 52 223 177 261 212 415 388 689 766 908 1250 85 188 188 495
226 676 2 10 10 51 19 90 8 38 18 92 22 120 3 27 7 51 9 54 2 3 6 34 10 70 4
36 9 74 11 85 18 93 25 548 11 710 -10 114 -14 147 -21 191 -3 21 -8 59 -12
84 -26 204 -122 553 -216 789 -126 320 -344 697 -539 936 -149 182 -321 363
-453 476 -22 19 -51 44 -65 57 -72 66 -325 246 -476 339 -116 71 -316 173
-470 238 -176 75 -530 187 -660 209 -16 3 -43 8 -60 11 -134 26 -176 33 -250
40 -27 3 -60 7 -72 9 -62 12 -554 29 -566 20z m289 -2518 c40 -3 78 -8 85 -10
8 -3 30 -7 49 -10 73 -11 168 -46 290 -107 283 -141 510 -417 598 -724 61
-213 61 -449 1 -657 -93 -321 -319 -591 -617 -737 -73 -36 -184 -78 -227 -87
-101 -19 -125 -24 -160 -29 -46 -7 -238 -7 -275 -1 -14 3 -54 10 -90 16 -306
54 -594 251 -774 530 -70 109 -145 290 -162 395 -2 17 -8 55 -13 85 -9 53 -7
289 2 340 46 250 150 458 317 634 193 202 456 332 730 361 36 4 66 8 67 8 3 3
109 -1 179 -7z"/>
</g>
</svg>
